<svg width="2010" height="681" viewBox="0 0 2010 681" fill="none" xmlns="http://www.w3.org/2000/svg">
<path d="M183.803 152.277L141.646 283.944H225.959L183.803 152.277ZM0.640625 489.919L146.007 33.6456H183.803H221.598L366.965 489.919H291.374L246.31 349.126C106.496 349.126 124.265 337.849 108.212 388.235L76.2313 489.919H0.640625Z" fill="white"/>
<path d="M470.885 311.972V489.919H398.202V164.009H470.885V185.519C470.885 192.689 472.339 195.948 475.973 195.948C478.153 195.948 481.061 193.993 485.422 190.082C514.495 163.358 532.666 157.491 561.013 157.491C610.437 157.491 643.145 176.394 661.316 212.244C692.569 170.528 739.814 157.491 765.98 157.491C838.663 157.491 883 207.681 883 295.025V489.919H810.317V312.624C810.317 255.916 779.789 231.147 748.536 231.147C714.374 231.147 678.033 261.13 678.033 313.276V489.919H605.349V312.624C605.349 255.916 574.096 230.495 542.115 230.495C507.227 230.495 470.885 259.827 470.885 311.972Z" fill="white"/>
<path d="M1002.05 180.305C1023.86 167.268 1053.66 157.491 1083.46 157.491C1313.14 157.491 1304.42 497.089 1100.9 497.089C1057.29 497.089 1026.04 485.356 1000.6 462.542C994.785 457.328 991.877 458.631 991.877 465.801V652.873H919.194V164.009H991.877V175.742C991.877 182.912 995.511 184.216 1002.05 180.305ZM999.872 330.223C999.872 393.45 1044.94 426.041 1090 426.041C1132.88 426.041 1175.04 395.405 1175.04 330.875C1175.04 261.782 1132.16 229.191 1089.27 229.191C1044.94 229.191 999.872 263.738 999.872 330.223Z" fill="white"/>
<path d="M1287.58 426.041V0.402832L1323.92 0.402832L1360.26 33.6456V489.919H1323.92L1287.58 426.041Z" fill="white"/>
<path d="M1405.61 489.919V164.009H1478.29V489.919H1405.61ZM1441.95 113.819C1382.35 113.819 1383.08 33.6456 1441.95 33.6456C1502.28 33.6456 1502.28 113.819 1441.95 113.819Z" fill="white"/>
<path d="M1556.93 489.919L1555.92 240.272C1555.92 229.843 1556.93 222.673 1545.3 222.673H1516.67V164.009H1555.92V122.945C1555.92 64.2811 1593.72 31.6902 1657.68 31.6902H1703.47V96.872H1676.58C1635.15 96.872 1628.61 119.863 1628.61 164.009H1676.58L1675.85 222.673C1628.61 222.673 1628.61 259.452 1628.61 263.086V450.384L1599.96 489.919H1556.93Z" fill="white"/>
<path d="M1705.41 164.009H1780.28L1857.32 429.3L1917.33 222.673L1934.36 164.009H2009.23L1888.57 579.87C1868.22 650.266 1815.16 680.25 1764.29 680.25C1706.14 680.25 1650.17 640.489 1650.17 573.352C1650.17 509.473 1716.31 453.417 1786.82 446.247L1705.41 164.009ZM1730.12 573.352C1730.12 596.165 1745.39 610.505 1764.29 610.505C1783.18 610.505 1805.72 595.513 1818.8 558.36L1839.88 497.089C1827.52 492.526 1730.12 502.955 1730.12 573.352Z" fill="white"/>
</svg>
