<svg width="2010" height="681" viewBox="0 0 2010 681" fill="none" xmlns="http://www.w3.org/2000/svg">
<path d="M183.803 152.642L141.646 284.309H225.959L183.803 152.642ZM0.640625 490.284L146.007 34.0106H183.803H221.598L366.965 490.284H291.374L246.31 349.491C106.496 349.491 124.265 338.214 108.212 388.6L76.2313 490.284H0.640625Z" fill="#73D53F"/>
<path d="M470.885 312.337V490.284H398.202V164.374H470.885V185.884C470.885 193.054 472.339 196.313 475.973 196.313C478.153 196.313 481.061 194.358 485.422 190.447C514.495 163.723 532.666 157.856 561.013 157.856C610.437 157.856 643.145 176.759 661.316 212.609C692.569 170.893 739.814 157.856 765.98 157.856C838.663 157.856 883 208.046 883 295.39V490.284H810.317V312.989C810.317 256.281 779.789 231.512 748.536 231.512C714.374 231.512 678.033 261.495 678.033 313.641V490.284H605.349V312.989C605.349 256.281 574.096 230.86 542.115 230.86C507.227 230.86 470.885 260.192 470.885 312.337Z" fill="#73D53F"/>
<path d="M1002.05 180.67C1023.86 167.633 1053.66 157.856 1083.46 157.856C1313.14 157.856 1304.42 497.454 1100.9 497.454C1057.29 497.454 1026.04 485.721 1000.6 462.907C994.785 457.693 991.877 458.996 991.877 466.166V653.238H919.194V164.374H991.877V176.107C991.877 183.277 995.511 184.581 1002.05 180.67ZM999.872 330.588C999.872 393.815 1044.94 426.405 1090 426.405C1132.88 426.405 1175.04 395.77 1175.04 331.24C1175.04 262.147 1132.16 229.556 1089.27 229.556C1044.94 229.556 999.872 264.103 999.872 330.588Z" fill="#73D53F"/>
<path d="M1287.58 426.405V0.767822L1323.92 0.767822L1360.26 34.0106V490.284H1323.92L1287.58 426.405Z" fill="#73D53F"/>
<path d="M1405.61 490.284V164.374H1478.29V490.284H1405.61ZM1441.95 114.184C1382.35 114.184 1383.08 34.0106 1441.95 34.0106C1502.28 34.0106 1502.28 114.184 1441.95 114.184Z" fill="#73D53F"/>
<path d="M1556.93 490.284L1555.92 240.637C1555.92 230.208 1556.93 223.038 1545.3 223.038H1516.67V164.374H1555.92V123.31C1555.92 64.6461 1593.72 32.0551 1657.68 32.0551H1703.47V97.237H1676.58C1635.15 97.237 1628.61 120.228 1628.61 164.374H1676.58L1675.85 223.038C1628.61 223.038 1628.61 259.817 1628.61 263.451V450.749L1599.96 490.284H1556.93Z" fill="#73D53F"/>
<path d="M1705.41 164.374H1780.28L1857.32 429.665L1917.33 223.038L1934.36 164.374H2009.23L1888.57 580.235C1868.22 650.631 1815.16 680.615 1764.29 680.615C1706.14 680.615 1650.17 640.854 1650.17 573.717C1650.17 509.838 1716.31 453.782 1786.82 446.612L1705.41 164.374ZM1730.12 573.717C1730.12 596.53 1745.39 610.87 1764.29 610.87C1783.18 610.87 1805.72 595.878 1818.8 558.725L1839.88 497.454C1827.52 492.891 1730.12 503.32 1730.12 573.717Z" fill="#73D53F"/>
</svg>
