<svg width="2009" height="681" viewBox="0 0 2009 681" fill="none" xmlns="http://www.w3.org/2000/svg">
<path d="M183.162 152.438L141.006 284.106H225.318L183.162 152.438ZM0 490.08L145.367 33.8072H183.162H220.957L366.324 490.08H290.734L245.67 349.288C105.855 349.288 123.624 338.011 107.571 388.397L75.5907 490.08H0Z" fill="#2B660B"/>
<path d="M470.244 312.134V490.08H397.561V164.171H470.244V185.681C470.244 192.851 471.698 196.11 475.332 196.11C477.513 196.11 480.42 194.155 484.781 190.244C513.855 163.519 532.025 157.653 560.372 157.653C609.797 157.653 642.504 176.556 660.675 212.406C691.929 170.689 739.173 157.653 765.339 157.653C838.022 157.653 882.359 207.843 882.359 295.187V490.08H809.676V312.786C809.676 256.077 779.149 231.308 747.895 231.308C713.734 231.308 677.392 261.292 677.392 313.437V490.08H604.709V312.786C604.709 256.077 573.455 230.656 541.474 230.656C506.586 230.656 470.244 259.988 470.244 312.134Z" fill="#2B660B"/>
<path d="M1001.41 180.466C1023.22 167.43 1053.02 157.653 1082.82 157.653C1312.5 157.653 1303.78 497.25 1100.26 497.25C1056.65 497.25 1025.4 485.518 999.959 462.704C994.144 457.489 991.237 458.793 991.237 465.963V653.035H918.553V164.171H991.237V175.904C991.237 183.074 994.871 184.377 1001.41 180.466ZM999.232 330.385C999.232 393.611 1044.3 426.202 1089.36 426.202C1132.24 426.202 1174.4 395.567 1174.4 331.037C1174.4 261.944 1131.52 229.353 1088.63 229.353C1044.3 229.353 999.232 263.899 999.232 330.385Z" fill="#2B660B"/>
<path d="M1286.94 426.202V0.564453L1323.28 0.564453L1359.62 33.8072V490.08H1323.28L1286.94 426.202Z" fill="#2B660B"/>
<path d="M1404.97 490.08V164.171H1477.65V490.08H1404.97ZM1441.31 113.981C1381.71 113.981 1382.44 33.8072 1441.31 33.8072C1501.64 33.8072 1501.64 113.981 1441.31 113.981Z" fill="#2B660B"/>
<path d="M1556.29 490.08L1555.28 240.434C1555.28 230.005 1556.29 222.835 1544.66 222.835H1516.03V164.171H1555.28V123.106C1555.28 64.4427 1593.08 31.8518 1657.04 31.8518H1702.83V97.0336H1675.94C1634.51 97.0336 1627.97 120.025 1627.97 164.171H1675.94L1675.21 222.835C1627.97 222.835 1627.97 259.613 1627.97 263.247V450.546L1599.32 490.08H1556.29Z" fill="#2B660B"/>
<path d="M1704.77 164.171H1779.64L1856.68 429.461L1916.69 222.835L1933.72 164.171H2008.59L1887.93 580.031C1867.58 650.428 1814.52 680.411 1763.65 680.411C1705.5 680.411 1649.53 640.65 1649.53 573.513C1649.53 509.635 1715.67 453.579 1786.18 446.409L1704.77 164.171ZM1729.48 573.513C1729.48 596.327 1744.75 610.667 1763.65 610.667C1782.54 610.667 1805.07 595.675 1818.16 558.521L1839.24 497.25C1826.88 492.688 1729.48 503.117 1729.48 573.513Z" fill="#2B660B"/>
</svg>
