<svg width="2009" height="681" viewBox="0 0 2009 681" fill="none" xmlns="http://www.w3.org/2000/svg">
<path d="M183.258 152.277L141.101 283.944H225.414L183.258 152.277ZM0.0957031 489.919L145.462 33.6456H183.258H221.053L366.42 489.919H290.829L245.766 349.126C105.951 349.126 123.72 337.849 107.667 388.235L75.6864 489.919H0.0957031Z" fill="black"/>
<path d="M470.34 311.972V489.919H397.657V164.009H470.34V185.519C470.34 192.689 471.794 195.948 475.428 195.948C477.609 195.948 480.516 193.993 484.877 190.082C513.95 163.358 532.121 157.491 560.468 157.491C609.892 157.491 642.6 176.394 660.771 212.244C692.025 170.528 739.269 157.491 765.435 157.491C838.118 157.491 882.455 207.681 882.455 295.025V489.919H809.772V312.624C809.772 255.916 779.245 231.147 747.991 231.147C713.83 231.147 677.488 261.13 677.488 313.276V489.919H604.804V312.624C604.804 255.916 573.551 230.495 541.57 230.495C506.682 230.495 470.34 259.827 470.34 311.972Z" fill="black"/>
<path d="M1001.51 180.305C1023.31 167.268 1053.11 157.491 1082.91 157.491C1312.59 157.491 1303.87 497.089 1100.36 497.089C1056.75 497.089 1025.49 485.356 1000.05 462.542C994.24 457.328 991.332 458.631 991.332 465.801V652.873H918.649V164.009H991.332V175.742C991.332 182.912 994.967 184.216 1001.51 180.305ZM999.328 330.223C999.328 393.45 1044.39 426.041 1089.45 426.041C1132.34 426.041 1174.49 395.405 1174.49 330.875C1174.49 261.782 1131.61 229.191 1088.73 229.191C1044.39 229.191 999.328 263.738 999.328 330.223Z" fill="black"/>
<path d="M1287.03 426.041V0.402832L1323.38 0.402832L1359.72 33.6456V489.919H1323.38L1287.03 426.041Z" fill="black"/>
<path d="M1405.07 489.919V164.009H1477.75V489.919H1405.07ZM1441.41 113.819C1381.81 113.819 1382.53 33.6456 1441.41 33.6456C1501.73 33.6456 1501.73 113.819 1441.41 113.819Z" fill="black"/>
<path d="M1556.39 489.919L1555.38 240.272C1555.38 229.843 1556.39 222.673 1544.76 222.673H1516.13V164.009H1555.38V122.945C1555.38 64.2811 1593.17 31.6902 1657.13 31.6902H1702.93V96.872H1676.03C1634.6 96.872 1628.06 119.863 1628.06 164.009H1676.03L1675.31 222.673C1628.06 222.673 1628.06 259.452 1628.06 263.086V450.384L1599.42 489.919H1556.39Z" fill="black"/>
<path d="M1704.87 164.009H1779.73L1856.78 429.3L1916.78 222.673L1933.82 164.009H2008.68L1888.03 579.87C1867.68 650.266 1814.62 680.25 1763.74 680.25C1705.59 680.25 1649.63 640.489 1649.63 573.352C1649.63 509.473 1715.77 453.417 1786.27 446.247L1704.87 164.009ZM1729.58 573.352C1729.58 596.165 1744.84 610.505 1763.74 610.505C1782.64 610.505 1805.17 595.513 1818.25 558.36L1839.33 497.089C1826.98 492.526 1729.58 502.955 1729.58 573.352Z" fill="black"/>
</svg>
